<svg width="32" height="32" viewBox="0 0 32 32" fill="none" xmlns="http://www.w3.org/2000/svg">
<path d="M5.7752 16.0639L16 26.6673L26.2248 16.0639C27.3615 14.8851 28 13.2864 28 11.6194C28 8.14805 25.2864 5.33398 21.9391 5.33398C20.3316 5.33398 18.79 5.9962 17.6533 7.17493L16 8.88954L14.3467 7.17493C13.21 5.9962 11.6684 5.33398 10.0609 5.33398C6.71356 5.33398 4 8.14805 4 11.6194C4 13.2864 4.63856 14.8851 5.7752 16.0639Z" fill="white" fill-opacity="0.8"/>
<path d="M27 11.6191C26.9999 8.66574 24.7003 6.33418 21.9395 6.33398C20.6092 6.33398 19.3253 6.88172 18.373 7.86914L16.7197 9.58398C16.5313 9.7793 16.2714 9.88965 16 9.88965C15.7286 9.88965 15.4687 9.7793 15.2803 9.58398L13.627 7.86914C12.6747 6.88172 11.3908 6.33398 10.0605 6.33398C7.2997 6.33418 5.00014 8.66573 5 11.6191C5 13.0324 5.54176 14.3814 6.49512 15.3701L16 25.2266L25.5049 15.3701C26.4583 14.3814 27 13.0324 27 11.6191ZM29 11.6191C29 13.5398 28.2644 15.3889 26.9443 16.7578L16.7197 27.3613C16.5313 27.5568 16.2715 27.667 16 27.667C15.7285 27.667 15.4687 27.5568 15.2803 27.3613L5.05566 16.7578C3.73574 15.3889 3 13.5399 3 11.6191C3.00014 7.63034 6.1272 4.33418 10.0605 4.33398C11.9451 4.33398 13.7452 5.11057 15.0664 6.48047L16 7.44824L16.9336 6.48047C18.2548 5.11057 20.0549 4.33398 21.9395 4.33398C25.8728 4.33418 28.9999 7.63033 29 11.6191Z" fill="black"/>
</svg>
