<svg width="185" height="24" viewBox="0 0 185 24" fill="none" xmlns="http://www.w3.org/2000/svg">
<path d="M43.6864 3.90777C43.868 3.83595 43.9161 3.70943 43.9903 3.61002C46.1228 0.749085 50.1083 -0.636438 53.5982 0.281061C55.9782 0.90652 57.5639 2.4081 58.4652 4.64263C58.97 5.89355 59.1935 7.20582 59.2306 8.54473C59.2629 9.701 59.245 10.8592 59.2455 12.0164C59.247 15.488 59.2465 18.9597 59.2455 22.4313C59.2455 23.2437 59.3043 23.2266 58.4199 23.2257C57.1193 23.2242 55.8192 23.2257 54.5187 23.2252C54.3901 23.2252 54.2619 23.2199 54.1333 23.2209C53.9194 23.2219 53.8024 23.1224 53.7957 22.9084C53.7904 22.7343 53.786 22.5598 53.786 22.3857C53.7855 18.787 53.787 15.1884 53.7846 11.5897C53.7836 10.5257 53.721 9.46651 53.457 8.42868C53.312 7.85791 53.1222 7.30333 52.8178 6.79297C52.1362 5.65097 51.1165 5.0512 49.7851 4.9751C47.4908 4.84334 45.4918 6.02292 44.4903 8.08146C43.9508 9.19017 43.7432 10.3697 43.7418 11.5878C43.7365 15.2022 43.7413 18.8165 43.7389 22.4313C43.7384 23.3051 43.8054 23.2461 42.895 23.248C41.5303 23.2509 40.1657 23.2509 38.8011 23.2466C38.2808 23.2447 38.2534 23.219 38.2524 22.7091C38.2486 20.8384 38.2505 18.9678 38.2505 17.0971C38.2505 11.9132 38.2505 6.72923 38.2505 1.54577C38.2505 1.0416 38.5043 0.789038 39.012 0.788087C40.3444 0.787611 41.6772 0.785709 43.0096 0.78999C43.5303 0.791416 43.5491 0.811869 43.5669 1.32365C43.5905 2.00476 43.604 2.68634 43.6262 3.36745C43.6315 3.53725 43.6093 3.71229 43.6873 3.90872L43.6864 3.90777Z" fill="currentColor"></path>
<path d="M16.7271 3.98912C17.1453 3.4412 17.5263 2.95262 17.9931 2.54145C20.368 0.448043 23.1104 -0.44316 26.2656 0.211117C28.9233 0.762362 30.6521 2.40043 31.5717 4.89219C31.9976 6.04691 32.2264 7.24768 32.2317 8.4722C32.2524 13.2183 32.2481 17.9649 32.25 22.7115C32.25 23.2248 32.2278 23.2447 31.7023 23.2466C30.2899 23.2514 28.877 23.2504 27.4646 23.248C26.8263 23.2471 26.8148 23.2376 26.8143 22.6151C26.8124 19.1344 26.8191 15.6536 26.8095 12.1728C26.8061 11.0499 26.7868 9.92509 26.5503 8.8188C26.3904 8.07194 26.1611 7.35119 25.7468 6.69644C25.1158 5.69983 24.1962 5.13197 23.0275 5.03036C20.7134 4.82904 18.9296 5.72974 17.7248 7.6883C16.9598 8.93133 16.7469 10.3211 16.744 11.7479C16.7368 15.3074 16.7416 18.8675 16.7411 22.4276C16.7411 22.6014 16.7353 22.7756 16.7324 22.9494C16.7286 23.1436 16.6241 23.2362 16.4314 23.2404C16.335 23.2423 16.2387 23.2485 16.1428 23.2485C14.7141 23.249 13.2858 23.2509 11.857 23.2485C11.2611 23.2476 11.2524 23.2376 11.2515 22.6222C11.2491 21.1665 11.2505 19.7112 11.2505 18.2555C11.2505 12.734 11.2505 7.21207 11.2505 1.6906C11.2505 0.739097 11.1985 0.832158 12.147 0.828834C13.399 0.825036 14.6509 0.826935 15.9029 0.828834C16.5706 0.829309 16.5725 0.831208 16.5879 1.46887C16.6043 2.14878 16.6164 2.82918 16.6327 3.50909C16.6361 3.64631 16.6159 3.7897 16.7281 3.99054L16.7271 3.98912Z" fill="currentColor"></path>
<path d="M85.38 23.9985C82.8685 24.0307 80.4523 23.5571 78.1919 22.367C77.391 21.9454 76.6487 21.4351 75.9899 20.8058C75.6794 20.509 75.6785 20.4888 75.9399 20.1327C76.6374 19.1816 77.3386 18.2333 78.0432 17.2875C78.2858 16.9618 78.2976 16.9594 78.6388 17.2229C79.8813 18.1823 81.2404 18.9074 82.7415 19.3391C83.901 19.673 85.0775 19.846 86.2861 19.6755C86.9482 19.5825 87.5781 19.3945 88.16 19.0577C89.5068 18.2781 89.6258 16.479 88.3969 15.5163C87.9925 15.1997 87.5324 14.9954 87.052 14.8321C86.1704 14.5324 85.2573 14.3522 84.3644 14.0958C83.1073 13.7349 81.8657 13.3244 80.6397 12.8676C79.4665 12.4306 78.4623 11.7315 77.6067 10.8015C76.8634 9.9935 76.5043 9.01586 76.3745 7.94089C75.9866 4.73478 77.5406 2.06157 80.4792 0.852647C81.7043 0.34865 82.9898 0.137607 84.2965 0.0393132C87.4035 -0.194376 90.2463 0.619922 92.8612 2.3179C93.2198 2.55063 93.5511 2.8219 93.864 3.11726C94.0301 3.27386 94.0608 3.41744 93.922 3.61644C93.2279 4.60998 92.5464 5.61268 91.8508 6.60477C91.655 6.88471 91.6375 6.87701 91.2831 6.61296C89.9552 5.62424 88.4903 4.9463 86.8835 4.59456C85.7915 4.35606 84.699 4.33245 83.6141 4.63937C83.0606 4.79597 82.5561 5.04941 82.1545 5.48354C81.4065 6.29302 81.4466 7.48556 82.2508 8.23626C82.6637 8.62172 83.1573 8.86842 83.674 9.07176C84.6613 9.46011 85.7009 9.65526 86.7179 9.93231C87.7358 10.2094 88.7593 10.4652 89.756 10.817C90.5918 11.1118 91.394 11.4766 92.1226 11.9955C93.6167 13.0594 94.3944 14.5136 94.4907 16.3773C94.6526 19.5116 92.6871 22.2166 89.8443 23.2482C88.4021 23.7715 86.9095 23.944 85.38 23.9985Z" fill="currentColor"></path>
<path d="M99.7517 11.9504C99.7517 8.41609 99.7531 4.8813 99.7507 1.34699C99.7502 0.670207 99.7617 0.753496 100.351 0.75302C105.447 0.749689 110.543 0.751116 115.638 0.751592C115.718 0.751592 115.798 0.751592 115.877 0.756352C116.207 0.778245 116.243 0.796806 116.244 1.11711C116.252 2.40167 116.252 3.68622 116.244 4.97078C116.243 5.29822 116.199 5.32297 115.774 5.32393C114.213 5.32631 112.652 5.32393 111.092 5.32393C109.34 5.32393 107.588 5.3244 105.837 5.32488C105.789 5.32488 105.741 5.3225 105.693 5.32297C105.214 5.32773 105.211 5.32773 105.209 5.78654C105.207 6.3253 105.211 6.86454 105.211 7.4033C105.211 8.32281 105.208 9.24184 105.209 10.1614C105.209 10.712 105.211 10.7153 105.754 10.7158C107.984 10.7173 110.214 10.7163 112.443 10.7168C113.208 10.7168 113.972 10.713 114.737 10.7192C115.212 10.723 115.251 10.7591 115.254 11.2408C115.261 12.2398 115.259 13.2392 115.256 14.2382C115.254 14.8712 115.245 14.8808 114.619 14.8808C111.752 14.8822 108.886 14.8817 106.018 14.8817C105.859 14.8817 105.699 14.8927 105.541 14.8822C105.286 14.8655 105.204 14.9907 105.209 15.2263C105.216 15.6542 105.21 16.082 105.21 16.5104C105.21 18.5074 105.21 20.5044 105.21 22.5019C105.21 22.6285 105.215 22.7556 105.208 22.8822C105.191 23.2097 105.171 23.2444 104.849 23.2454C103.272 23.2515 101.695 23.2515 100.119 23.2454C99.7942 23.2444 99.7712 23.2087 99.7536 22.887C99.7469 22.7604 99.7517 22.6333 99.7517 22.5067C99.7517 18.9881 99.7517 15.469 99.7517 11.9504Z" fill="currentColor"></path>
<path d="M126.194 4.6002C126.347 4.61129 126.375 4.50576 126.424 4.42963C127.754 2.39335 129.678 1.29956 132.027 0.899631C133.105 0.716048 134.194 0.693883 135.278 0.875057C135.735 0.951189 135.751 0.981063 135.75 1.43159C135.747 2.92531 135.74 4.41855 135.734 5.91227C135.734 6.00864 135.731 6.10501 135.722 6.2009C135.71 6.34208 135.625 6.40038 135.491 6.37099C135.335 6.33629 135.182 6.291 135.028 6.24667C133.701 5.8636 132.354 5.74941 130.988 5.97346C128.563 6.37099 126.815 8.06949 126.325 10.4879C126.194 11.136 126.152 11.7922 126.152 12.4519C126.152 16.0334 126.152 19.6145 126.151 23.1961C126.151 24.0263 126.186 23.9993 125.374 23.9998C124.076 24.0003 122.78 23.9998 121.483 23.9998C121.339 23.9998 121.194 23.9979 121.051 23.9902C120.859 23.98 120.762 23.8721 120.757 23.6808C120.754 23.5526 120.75 23.424 120.75 23.2953C120.75 16.1486 120.75 9.00235 120.75 1.85561C120.75 1.83971 120.75 1.82333 120.75 1.80743C120.754 1.22488 120.754 1.22199 121.336 1.2215C122.697 1.21958 124.058 1.22054 125.419 1.22054C125.499 1.22054 125.579 1.21861 125.659 1.22488C125.975 1.24945 126.013 1.27836 126.028 1.59975C126.066 2.40154 126.092 3.2043 126.127 4.00609C126.136 4.2075 126.101 4.41758 126.193 4.60069L126.194 4.6002Z" fill="currentColor"></path>
<path d="M70.4998 11.9834C70.4998 15.5025 70.4998 19.021 70.4998 22.5401C70.4998 23.2469 70.4975 23.2488 69.8182 23.2492C68.5144 23.2507 67.2106 23.2497 65.9067 23.2492C65.7994 23.2492 65.6921 23.2459 65.5848 23.2445C65.3545 23.2416 65.2541 23.1117 65.2537 22.8837C65.2537 22.7728 65.25 22.6619 65.25 22.5511C65.25 15.4972 65.25 8.44388 65.25 1.39005C65.25 0.752298 65.2518 0.75087 65.8437 0.750394C67.1935 0.749442 68.5429 0.750394 69.8928 0.751346C70.0153 0.751346 70.1383 0.754202 70.2608 0.760865C70.4049 0.76848 70.4874 0.845105 70.491 0.999308C70.4947 1.15779 70.4998 1.31628 70.4998 1.47477C70.5003 4.97764 70.4998 8.48052 70.4998 11.9834Z" fill="currentColor"></path>
<path d="M5.2498 11.9857C5.2498 15.4905 5.2498 18.9952 5.2498 22.5005C5.2498 23.2477 5.24749 23.2491 4.50695 23.2491C3.18623 23.2496 1.86597 23.2515 0.545256 23.2477C0.03236 23.2462 0.00332816 23.2177 0.00286734 22.6747C-0.00081924 19.4874 0.000102405 16.2996 0.000102405 13.1123C0.000102405 9.22678 0.000102405 5.34129 0.000563228 1.4558C0.000563228 0.751904 0.00286734 0.751428 0.68212 0.750952C2.00284 0.75 3.3231 0.75 4.64381 0.75C4.76639 0.75 4.88943 0.752856 5.01201 0.758091C5.15809 0.763802 5.23827 0.841379 5.2415 0.99558C5.24473 1.15406 5.2498 1.31255 5.2498 1.47103C5.25026 4.97578 5.2498 8.48053 5.2498 11.9857Z" fill="currentColor"></path>
<path d="M158.931 10.3836C158.768 8.54005 158.319 6.78072 157.431 5.15476C156.02 2.56824 153.901 0.922059 151.047 0.283615C149.549 -0.0514951 148.033 -0.0866432 146.524 0.162282C142.321 0.855614 139.421 3.19705 138.008 7.30505C137.059 10.0635 137.031 12.8946 137.758 15.6997C138.878 20.0185 141.629 22.6917 145.923 23.6961C147.623 24.0938 149.343 24.0577 151.062 23.8362C153.538 23.517 155.747 22.5564 157.676 20.944C158.03 20.6483 158.035 20.6257 157.78 20.2405C157.224 19.4022 156.666 18.565 156.102 17.7325C155.942 17.4975 155.851 17.1316 155.585 17.0743C155.287 17.0098 155.078 17.3483 154.848 17.5278C152.797 19.1292 150.47 19.7012 147.932 19.4109C145.346 19.1148 143.182 17.0796 142.685 14.5441C142.547 13.8436 142.579 13.8007 143.281 13.8002C145.763 13.7983 148.243 13.7997 150.724 13.7997C153.253 13.7997 155.781 13.8002 158.31 13.7978C158.883 13.7973 158.888 13.7766 158.94 13.2176C159.027 12.2715 159.015 11.3283 158.931 10.3827L158.931 10.3836ZM153.253 9.68212C151.783 9.68838 150.314 9.68549 148.845 9.68597C148.624 9.68597 148.402 9.68597 148.181 9.68597C146.585 9.68597 144.99 9.68597 143.394 9.68549C143.252 9.68549 143.11 9.68067 142.967 9.67538C142.768 9.66815 142.684 9.55212 142.699 9.36097C142.71 9.2016 142.724 9.04079 142.756 8.88479C143.102 7.22608 144.06 6.02335 145.482 5.19039C147.087 4.25005 148.773 4.14605 150.505 4.78305C152.47 5.50575 153.561 7.4336 153.688 9.24638C153.715 9.62097 153.658 9.68019 153.253 9.68212Z" fill="currentColor"></path>
<path d="M183.344 6.009C182.02 2.95418 179.756 1.0256 176.538 0.285362C175.058 -0.0553988 173.557 -0.0799451 172.061 0.153005C168.083 0.773402 165.235 2.92434 163.732 6.73383C162.469 9.93593 162.458 13.2324 163.506 16.4903C164.75 20.3604 167.417 22.7313 171.313 23.6545C173.57 24.1897 175.834 24.066 178.079 23.5385C179.975 23.0928 181.66 22.2033 183.166 20.9582C183.556 20.6353 183.56 20.6309 183.292 20.2266C182.648 19.2554 182 18.2865 181.35 17.3196C181.106 16.9562 181.102 16.961 180.729 17.2344C180.37 17.4972 180.018 17.7715 179.647 18.0146C177.58 19.3704 175.299 19.806 172.926 19.2905C170.406 18.7428 168.794 17.1088 168.198 14.5266C168.035 13.8171 168.073 13.7955 168.79 13.795C171.272 13.794 173.754 13.795 176.235 13.7945C178.701 13.7945 181.166 13.7945 183.632 13.794C183.79 13.794 183.948 13.7926 184.106 13.7839C184.284 13.7738 184.404 13.6925 184.42 13.4947C184.428 13.3989 184.447 13.3041 184.453 13.2083C184.625 10.7229 184.34 8.30528 183.344 6.009ZM178.717 9.67844C177.026 9.68325 175.335 9.68036 173.644 9.68036C172.017 9.68036 170.389 9.68325 168.761 9.68036C168.167 9.6794 168.103 9.60431 168.207 9.00413C168.4 7.89473 168.894 6.93069 169.696 6.16349C171.548 4.39327 173.705 3.88742 176.086 4.83221C178.01 5.59604 178.934 7.17904 179.166 9.21061C179.213 9.61635 179.145 9.67747 178.717 9.67844Z" fill="currentColor"></path>
</svg>
